<svg width="34" height="34" viewBox="0 0 34 34" fill="none" xmlns="http://www.w3.org/2000/svg">
<path d="M24.3312 11.6875C25.7408 10.2764 26.5417 8.3694 26.5625 6.375C26.5625 6.09321 26.4506 5.82296 26.2513 5.6237C26.052 5.42444 25.7818 5.3125 25.5 5.3125C25.0755 5.335 24.651 5.26796 24.2541 5.11573C23.8572 4.9635 23.4967 4.72949 23.1961 4.4289C22.8955 4.1283 22.6615 3.76784 22.5093 3.37092C22.357 2.97401 22.29 2.54951 22.3125 2.125C22.3125 1.84321 22.2006 1.57296 22.0013 1.3737C21.802 1.17444 21.5318 1.0625 21.25 1.0625H19.125C18.8432 1.0625 18.573 1.17444 18.3737 1.3737C18.1744 1.57296 18.0625 1.84321 18.0625 2.125C18.0625 2.40679 17.9506 2.67704 17.7513 2.8763C17.552 3.07556 17.2818 3.1875 17 3.1875C16.7182 3.1875 16.448 3.07556 16.2487 2.8763C16.0494 2.67704 15.9375 2.40679 15.9375 2.125C15.9375 1.84321 15.8256 1.57296 15.6263 1.3737C15.427 1.17444 15.1568 1.0625 14.875 1.0625H12.75C12.4682 1.0625 12.198 1.17444 11.9987 1.3737C11.7994 1.57296 11.6875 1.84321 11.6875 2.125C11.7102 2.54955 11.6432 2.97412 11.4911 3.37112C11.3389 3.76811 11.1049 4.12864 10.8043 4.42927C10.5036 4.7299 10.1431 4.96391 9.74612 5.11607C9.34912 5.26824 8.92455 5.33517 8.5 5.3125C8.21821 5.3125 7.94796 5.42444 7.7487 5.6237C7.54944 5.82296 7.4375 6.09321 7.4375 6.375C7.45829 8.3694 8.25922 10.2764 9.66875 11.6875H24.3312Z" fill="#2B39B9"/>
<path d="M32.7398 27.0077L23.3143 13.8125H20.5997L22.2582 18.7892L20.2395 19.4608L18.3588 13.8125H18.0624V21.25H15.9374V13.8125H15.641L13.7582 19.4608L11.7395 18.7892L13.4002 13.8125H10.6855L1.26003 27.0077C1.1773 27.1236 1.1187 27.2549 1.08772 27.3938C1.05674 27.5328 1.054 27.6766 1.07967 27.8166C1.10534 27.9567 1.15889 28.0901 1.23715 28.2091C1.3154 28.328 1.41677 28.43 1.53521 28.509C6.19574 31.3543 11.5397 32.8846 16.9999 32.9375C22.4601 32.8846 27.8041 31.3543 32.4646 28.509C32.583 28.43 32.6844 28.328 32.7627 28.2091C32.8409 28.0901 32.8945 27.9567 32.9201 27.8166C32.9458 27.6766 32.9431 27.5328 32.9121 27.3938C32.8811 27.2549 32.8225 27.1236 32.7398 27.0077Z" fill="#2B39B9"/>
</svg>
