<svg width="34" height="34" viewBox="0 0 34 34" fill="none" xmlns="http://www.w3.org/2000/svg">
<path d="M29.75 9.5625H26.0089C24.9137 8.23347 23.5381 7.16322 21.9805 6.42847C20.423 5.69373 18.7221 5.3127 17 5.3127C15.2779 5.3127 13.577 5.69373 12.0195 6.42847C10.4619 7.16322 9.08626 8.23347 7.99106 9.5625H4.25C3.40462 9.5625 2.59387 9.89833 1.9961 10.4961C1.39832 11.0939 1.0625 11.9046 1.0625 12.75V21.25C1.0625 22.0954 1.39832 22.9061 1.9961 23.5039C2.59387 24.1017 3.40462 24.4375 4.25 24.4375H7.99106C9.08626 25.7665 10.4619 26.8368 12.0195 27.5715C13.577 28.3063 15.2779 28.6873 17 28.6873C18.7221 28.6873 20.423 28.3063 21.9805 27.5715C23.5381 26.8368 24.9137 25.7665 26.0089 24.4375H29.75C30.5954 24.4375 31.4061 24.1017 32.0039 23.5039C32.6017 22.9061 32.9375 22.0954 32.9375 21.25V12.75C32.9375 11.9046 32.6017 11.0939 32.0039 10.4961C31.4061 9.89833 30.5954 9.5625 29.75 9.5625ZM22.6653 24.6861L22.1701 23.8298L20.3299 24.8923L20.8293 25.7571C19.9511 26.1428 19.0198 26.3936 18.0667 26.5009V23.375H15.9375V26.4998C14.9845 26.3925 14.0531 26.1417 13.175 25.7561L13.6744 24.8912L11.8341 23.8287L11.339 24.6851C10.5696 24.1161 9.88924 23.4357 9.32025 22.6663L10.1766 22.1712L9.11413 20.3309L8.24925 20.8293C7.86286 19.9514 7.61208 19.0199 7.5055 18.0668H10.625V15.9375H7.50019C7.60676 14.9843 7.85754 14.0529 8.24394 13.175L9.10881 13.6733L10.1713 11.8331L9.31494 11.3379C9.88393 10.5686 10.5643 9.88818 11.3337 9.31919L11.8288 10.1756L13.6691 9.11307L13.1697 8.24819C14.0478 7.86251 14.9791 7.61176 15.9322 7.50444V10.625H18.0572V7.50019C19.0102 7.60751 19.9416 7.85826 20.8197 8.24394L20.3203 9.10882L22.1606 10.1713L22.6557 9.31494C23.4251 9.88393 24.1054 10.5643 24.6744 11.3337L23.8181 11.8288L24.8806 13.6691L25.7454 13.1708C26.1318 14.0486 26.3826 14.9801 26.4892 15.9333H23.375V18.0583H26.4998C26.3932 19.0114 26.1425 19.9429 25.7561 20.8208L24.8912 20.3224L23.8287 22.1627L24.6851 22.6578C24.1165 23.4307 23.4357 24.1143 22.6653 24.6861Z" fill="white"/>
<path d="M17 20.1875C18.7604 20.1875 20.1875 18.7604 20.1875 17C20.1875 15.2396 18.7604 13.8125 17 13.8125C15.2396 13.8125 13.8125 15.2396 13.8125 17C13.8125 18.7604 15.2396 20.1875 17 20.1875Z" fill="white"/>
</svg>
