<svg width="28" height="28" viewBox="0 0 28 28" fill="none" xmlns="http://www.w3.org/2000/svg">
<path d="M11.8718 24.1951C12.4595 24.7138 13.2163 25 14 25C14.7837 25 15.5405 24.7138 16.1282 24.1951C18.701 21.931 24.7159 15.9531 24.9906 9.44545C25.0796 7.83754 24.5309 6.25945 23.4636 5.05403C22.3962 3.84862 20.8966 3.11328 19.2905 3.00777C18.2512 2.95813 17.217 3.17996 16.2894 3.65143C15.3618 4.12291 14.5728 4.8278 14 5.6968C13.4297 4.82531 12.6412 4.11848 11.713 3.64669C10.7848 3.17491 9.74927 2.95462 8.7095 3.00777C7.10338 3.11328 5.60375 3.84862 4.53644 5.05403C3.46912 6.25945 2.92035 7.83754 3.00936 9.44545C3.28412 15.9531 9.299 21.931 11.8718 24.1951Z" fill="#B9BCD3"/>
</svg>
