<svg width="28" height="28" viewBox="0 0 28 28" fill="none" xmlns="http://www.w3.org/2000/svg">
<path d="M9.752 2H4.648C3.18555 2 2 3.18555 2 4.648V9.752C2 11.2144 3.18555 12.4 4.648 12.4H9.752C11.2144 12.4 12.4 11.2144 12.4 9.752V4.648C12.4 3.18555 11.2144 2 9.752 2Z" fill="#2B39B9"/>
<path d="M23.352 2H18.248C16.7856 2 15.6 3.18555 15.6 4.648V9.752C15.6 11.2144 16.7856 12.4 18.248 12.4H23.352C24.8145 12.4 26 11.2144 26 9.752V4.648C26 3.18555 24.8145 2 23.352 2Z" fill="#2B39B9"/>
<path d="M9.752 15.6H4.648C3.18555 15.6 2 16.7856 2 18.248V23.352C2 24.8145 3.18555 26 4.648 26H9.752C11.2144 26 12.4 24.8145 12.4 23.352V18.248C12.4 16.7856 11.2144 15.6 9.752 15.6Z" fill="#2B39B9"/>
<path d="M20.8 26C23.6719 26 26 23.6719 26 20.8C26 17.9281 23.6719 15.6 20.8 15.6C17.9281 15.6 15.6 17.9281 15.6 20.8C15.6 23.6719 17.9281 26 20.8 26Z" fill="#2B39B9"/>
</svg>
