<?xml version="1.0" standalone="no"?>
<!DOCTYPE svg PUBLIC "-//W3C//DTD SVG 20010904//EN"
 "http://www.w3.org/TR/2001/REC-SVG-20010904/DTD/svg10.dtd">
<svg version="1.0" xmlns="http://www.w3.org/2000/svg"
 width="512.000000pt" height="512.000000pt" viewBox="0 0 512.000000 512.000000"
 preserveAspectRatio="xMidYMid meet">

<g transform="translate(0.000000,512.000000) scale(0.100000,-0.100000)"
fill="#000000" stroke="none">
<path d="M162 5103 c-18 -9 -43 -30 -55 -47 l-22 -31 -3 -2136 -2 -2136 22
-33 c13 -18 36 -43 51 -54 28 -21 34 -21 839 -24 445 -1 808 1 806 5 -2 5 -31
64 -65 133 -107 213 -164 424 -182 668 -36 467 123 967 426 1342 33 41 112
125 175 185 270 261 582 420 963 492 128 24 427 28 570 9 289 -41 564 -142
795 -295 l75 -49 3 906 c1 499 0 926 -3 949 -7 51 -45 100 -92 119 -26 11
-170 14 -773 14 l-740 0 0 -493 c0 -460 -1 -495 -19 -527 -10 -19 -33 -45 -51
-57 l-33 -23 -524 0 c-567 0 -550 -2 -603 55 l-25 27 -3 509 -3 509 -747 0
c-668 0 -750 -2 -780 -17z"/>
<path d="M1990 4720 l0 -400 330 0 330 0 0 400 0 400 -330 0 -330 0 0 -400z"/>
<path d="M3275 3184 c-368 -54 -684 -203 -935 -441 -265 -252 -420 -545 -475
-898 -23 -148 -16 -436 14 -573 70 -319 210 -573 440 -802 326 -325 739 -486
1201 -467 553 22 1052 340 1328 847 151 278 219 624 182 930 -10 78 -55 283
-67 304 -3 4 -328 -314 -722 -707 -638 -638 -721 -717 -758 -727 -88 -22 -80
-29 -545 437 -235 236 -432 441 -438 456 -14 39 -13 83 4 115 8 15 128 140
268 279 334 332 315 328 531 115 l137 -137 481 481 480 480 -88 58 c-104 69
-256 143 -370 181 -159 52 -254 66 -453 70 -102 2 -198 1 -215 -1z"/>
<path d="M4040 2086 c-549 -548 -547 -546 -628 -531 -30 5 -63 32 -177 146
l-141 139 -122 -123 -122 -122 295 -295 295 -295 675 675 675 675 0 44 c0 42
-4 49 -78 123 -129 128 -64 171 -672 -436z"/>
</g>
</svg>
