<svg width="28" height="28" viewBox="0 0 28 28" fill="none" xmlns="http://www.w3.org/2000/svg">
<path fill-rule="evenodd" clip-rule="evenodd" d="M10.652 14.5773C10.5852 14.5189 10.4309 14.3833 10.376 14.332C9.03775 13.0805 8.16102 11.1208 8.16102 8.91219C8.16102 5.05573 10.8279 2 14.0005 2C17.1731 2 19.84 5.05573 19.84 8.91219C19.84 11.1189 18.9648 13.0772 17.6301 14.3307C17.5739 14.3835 17.4166 14.5219 17.3507 14.5797L17.345 14.6755C17.3824 15.2508 17.7708 15.7492 18.3285 15.9252C22.4736 17.2297 25.4787 20.3468 25.9833 24.0412C26.0527 24.5341 25.9042 25.0326 25.576 25.4082C25.2478 25.7837 24.7723 25.9993 24.2724 25.9993C20.614 26 7.38718 26 3.72875 26C3.22849 26 2.75273 25.7843 2.42445 25.4086C2.09617 25.033 1.94756 24.5342 2.01657 24.0445C2.52238 20.3467 5.52746 17.2297 9.67193 15.9253C10.2315 15.7487 10.6204 15.2482 10.6562 14.6711L10.652 14.5773Z" fill="#B9BCD3"/>
</svg>
