<svg width="34" height="34" viewBox="0 0 34 34" fill="none" xmlns="http://www.w3.org/2000/svg">
<path d="M32.862 14.4797L28.612 3.85475C28.5545 3.71136 28.4665 3.58222 28.354 3.47634C28.2415 3.37046 28.1073 3.29039 27.9607 3.24169L21.5857 1.11669C21.427 1.06384 21.2582 1.04918 21.0928 1.07388C20.9275 1.09859 20.7703 1.16198 20.634 1.25888C20.4978 1.35579 20.3863 1.48349 20.3087 1.63158C20.2311 1.77968 20.1895 1.944 20.1874 2.11119C20.172 2.95923 19.8244 3.76735 19.2192 4.36165C18.614 4.95595 17.7998 5.28893 16.9516 5.28893C16.1034 5.28893 15.2891 4.95595 14.6839 4.36165C14.0788 3.76735 13.7311 2.95923 13.7157 2.11119C13.7135 1.94356 13.6717 1.77883 13.5937 1.63046C13.5156 1.48208 13.4036 1.35428 13.2667 1.2575C13.1298 1.16072 12.972 1.0977 12.8061 1.0736C12.6402 1.04949 12.4709 1.06499 12.3122 1.11881L6.04341 3.24381C5.898 3.29294 5.76495 3.37299 5.65343 3.47846C5.54192 3.58393 5.45457 3.7123 5.39741 3.85475L1.14741 14.4797C1.0935 14.6143 1.06768 14.7584 1.07154 14.9033C1.07541 15.0482 1.10887 15.1908 1.16988 15.3222C1.23089 15.4537 1.31815 15.5713 1.42629 15.6678C1.53444 15.7643 1.66118 15.8376 1.79873 15.8833L5.31241 17.0574V10.625H7.43741V31.875C7.43741 32.1568 7.54936 32.427 7.74861 32.6263C7.94787 32.8255 8.21812 32.9375 8.49991 32.9375H25.4999C25.7817 32.9375 26.052 32.8255 26.2512 32.6263C26.4505 32.427 26.5624 32.1568 26.5624 31.875V10.625H28.6874V17.0574L32.2107 15.8886C32.3482 15.8429 32.4749 15.7696 32.5831 15.6731C32.6912 15.5766 32.7785 15.459 32.8395 15.3275C32.9005 15.1961 32.934 15.0535 32.9378 14.9086C32.9417 14.7637 32.9159 14.6196 32.862 14.4851V14.4797Z" fill="white"/>
</svg>
