<svg width="34" height="34" viewBox="0 0 34 34" fill="none" xmlns="http://www.w3.org/2000/svg">
<path d="M32.0949 10.4476C31.8305 10.2469 31.5228 10.1109 31.1964 10.0506C30.87 9.99025 30.534 10.0072 30.2153 10.1001C28.0619 10.759 25.7416 10.6055 23.6937 9.66875C23.5478 9.59694 23.3873 9.55959 23.2246 9.55959C23.062 9.55959 22.9015 9.59694 22.7555 9.66875L19.2631 11.3847L21.999 14.1206L20.4967 15.623L17.2507 12.3781L16.1808 12.9041C15.777 13.1017 15.3627 13.2781 14.9451 13.4417L17.7512 16.2488L16.2488 17.7512L12.6501 14.1525C12.4695 14.1939 12.291 14.2417 12.1082 14.2779L5.6376 15.5529C4.83636 15.7059 4.0808 16.0404 3.42883 16.5307C2.77687 17.0209 2.2458 17.654 1.87635 18.3812L1.30154 19.5075C1.15208 19.8012 1.07276 20.1255 1.06979 20.455C1.06682 20.7845 1.1403 21.1102 1.28444 21.4066C1.42859 21.7029 1.63948 21.9617 1.90054 22.1628C2.16161 22.3639 2.46574 22.5017 2.78904 22.5654L8.81873 23.7511C11.1936 24.2186 13.6369 24.2186 16.0119 23.7511L22.1616 22.542V23.375C22.1616 23.6568 22.2735 23.927 22.4728 24.1263C22.6721 24.3256 22.9423 24.4375 23.2241 24.4375H31.875C32.1568 24.4375 32.427 24.3256 32.6263 24.1263C32.8255 23.927 32.9375 23.6568 32.9375 23.375V12.1391C32.939 11.8109 32.8636 11.4869 32.7173 11.1932C32.5709 10.8994 32.3578 10.644 32.0949 10.4476Z" fill="white"/>
</svg>
