<svg width="28" height="28" viewBox="0 0 28 28" fill="none" xmlns="http://www.w3.org/2000/svg">
<path d="M26.9657 7.50236L25.0988 17.1356C24.9727 17.7824 24.6239 18.3655 24.1122 18.7852C23.6006 19.2049 22.9578 19.4351 22.2939 19.4364H9.23128C8.6013 19.4337 7.98986 19.2246 7.49201 18.8415C6.99416 18.4584 6.63779 17.9229 6.47831 17.3181C6.45639 17.2665 3.55384 2.89091 3.55384 2.89091H1.95275C1.70006 2.89091 1.45773 2.7913 1.27905 2.61399C1.10038 2.43668 1 2.1962 1 1.94545C1 1.6947 1.10038 1.45422 1.27905 1.27692C1.45773 1.09961 1.70006 1 1.95275 1H3.55337C3.99367 1.00101 4.42012 1.15285 4.76063 1.42985C5.10114 1.70686 5.33483 2.09204 5.42218 2.52029L5.97335 5.25455H25.0945C25.3753 5.25455 25.6525 5.31611 25.9065 5.4348C26.1604 5.5535 26.3848 5.72642 26.5636 5.94118C26.7424 6.15594 26.8711 6.40725 26.9406 6.67713C27.0102 6.94701 27.0187 7.22881 26.9657 7.50236ZM11.0039 21.3273C10.4386 21.3273 9.88595 21.4936 9.41591 21.8053C8.94587 22.1169 8.57952 22.5599 8.36319 23.0782C8.14686 23.5965 8.09025 24.1668 8.20054 24.717C8.31082 25.2672 8.58305 25.7726 8.98278 26.1692C9.38251 26.5659 9.8918 26.8361 10.4462 26.9455C11.0007 27.0549 11.5754 26.9988 12.0977 26.7841C12.6199 26.5694 13.0663 26.2059 13.3804 25.7394C13.6945 25.273 13.8621 24.7246 13.8621 24.1636C13.8614 23.4116 13.56 22.6906 13.0241 22.1589C12.4883 21.6271 11.7617 21.328 11.0039 21.3273ZM20.5314 21.3273C19.966 21.3273 19.4134 21.4936 18.9434 21.8053C18.4734 22.1169 18.107 22.5599 17.8907 23.0782C17.6743 23.5965 17.6177 24.1668 17.728 24.717C17.8383 25.2672 18.1105 25.7726 18.5103 26.1692C18.91 26.5659 19.4193 26.8361 19.9737 26.9455C20.5282 27.0549 21.1029 26.9988 21.6252 26.7841C22.1474 26.5694 22.5938 26.2059 22.9079 25.7394C23.222 25.273 23.3896 24.7246 23.3896 24.1636C23.3888 23.4116 23.0875 22.6906 22.5516 22.1589C22.0157 21.6271 21.2892 21.328 20.5314 21.3273Z" fill="#B9BCD3"/>
</svg>
