<svg width="28" height="28" viewBox="0 0 28 28" fill="none" xmlns="http://www.w3.org/2000/svg">
<path d="M22.75 3.0625H5.25C4.55381 3.0625 3.88613 3.33906 3.39384 3.83134C2.90156 4.32363 2.625 4.99131 2.625 5.6875V22.3125C2.625 23.0087 2.90156 23.6764 3.39384 24.1687C3.88613 24.6609 4.55381 24.9375 5.25 24.9375H22.75C23.4462 24.9375 24.1139 24.6609 24.6062 24.1687C25.0984 23.6764 25.375 23.0087 25.375 22.3125V5.6875C25.375 4.99131 25.0984 4.32363 24.6062 3.83134C24.1139 3.33906 23.4462 3.0625 22.75 3.0625ZM7.06562 12.1494C6.99971 11.9892 6.98282 11.8131 7.01709 11.6433C7.05135 11.4735 7.13524 11.3177 7.25813 11.1956L9.88313 8.57063C10.0505 8.42728 10.2658 8.35237 10.486 8.36088C10.7063 8.36938 10.9152 8.46067 11.071 8.61651C11.2268 8.77234 11.3181 8.98124 11.3266 9.20145C11.3351 9.42167 11.2602 9.63699 11.1169 9.80437L9.98812 10.9375H19.6875C19.9196 10.9375 20.1421 11.0297 20.3062 11.1938C20.4703 11.3579 20.5625 11.5804 20.5625 11.8125C20.5625 12.0446 20.4703 12.2671 20.3062 12.4312C20.1421 12.5953 19.9196 12.6875 19.6875 12.6875H7.875C7.702 12.6879 7.53279 12.6369 7.38872 12.5412C7.24466 12.4454 7.13223 12.309 7.06562 12.1494ZM21.1794 17.2419L18.5544 19.8669C18.4759 19.9585 18.3794 20.0329 18.2708 20.0854C18.1623 20.1379 18.0441 20.1674 17.9235 20.1721C17.803 20.1767 17.6829 20.1564 17.5706 20.1124C17.4583 20.0684 17.3563 20.0017 17.2711 19.9164C17.1858 19.8312 17.1191 19.7292 17.0751 19.6169C17.0311 19.5046 17.0108 19.3845 17.0154 19.264C17.0201 19.1434 17.0496 19.0252 17.1021 18.9167C17.1546 18.8081 17.229 18.7116 17.3206 18.6331L18.4494 17.5H8.75C8.51794 17.5 8.29538 17.4078 8.13128 17.2437C7.96719 17.0796 7.875 16.8571 7.875 16.625C7.875 16.3929 7.96719 16.1704 8.13128 16.0063C8.29538 15.8422 8.51794 15.75 8.75 15.75H20.5625C20.7355 15.7496 20.9047 15.8006 21.0488 15.8963C21.1928 15.9921 21.3053 16.1285 21.3719 16.2881C21.4378 16.4483 21.4547 16.6244 21.4204 16.7942C21.3861 16.964 21.3023 17.1198 21.1794 17.2419Z" fill="#B9BCD3"/>
</svg>
