<svg width="34" height="34" viewBox="0 0 34 34" fill="none" xmlns="http://www.w3.org/2000/svg">
<path d="M32.6687 29.3983L31.0154 14.5233C30.9289 13.7437 30.558 13.0235 29.9736 12.5003C29.3892 11.9771 28.6325 11.6877 27.8481 11.6875H26.5625V17H24.4375V11.6875H22.117C22.2428 12.0278 22.309 12.3872 22.3125 12.75V19.125C22.3125 19.9704 21.9767 20.7811 21.3789 21.3789C20.7811 21.9767 19.9704 22.3125 19.125 22.3125H14.875C14.0296 22.3125 13.2189 21.9767 12.6211 21.3789C12.0233 20.7811 11.6875 19.9704 11.6875 19.125V12.75C11.691 12.3872 11.7572 12.0278 11.883 11.6875H9.5625V17H7.4375V11.6875H6.15188C5.36752 11.6877 4.61077 11.9771 4.0264 12.5003C3.44204 13.0235 3.07111 13.7437 2.98456 14.5233L1.33025 29.3983C1.28079 29.8439 1.32587 30.2948 1.46254 30.7218C1.59921 31.1487 1.8244 31.5421 2.12341 31.8761C2.42242 32.2101 2.78852 32.4772 3.1978 32.6601C3.60708 32.843 4.05034 32.9375 4.49863 32.9375H29.5014C29.9496 32.9374 30.3927 32.8428 30.8019 32.6598C31.211 32.4768 31.577 32.2096 31.8759 31.8757C32.1748 31.5417 32.3999 31.1484 32.5365 30.7215C32.6731 30.2947 32.7181 29.8438 32.6687 29.3983Z" fill="#2B39B9"/>
<path d="M19.125 11.6875H14.875C14.5932 11.6875 14.323 11.7994 14.1237 11.9987C13.9244 12.198 13.8125 12.4682 13.8125 12.75V19.125C13.8125 19.4068 13.9244 19.677 14.1237 19.8763C14.323 20.0756 14.5932 20.1875 14.875 20.1875H19.125C19.4068 20.1875 19.677 20.0756 19.8763 19.8763C20.0756 19.677 20.1875 19.4068 20.1875 19.125V12.75C20.1875 12.4682 20.0756 12.198 19.8763 11.9987C19.677 11.7994 19.4068 11.6875 19.125 11.6875ZM17 18.0625C16.7899 18.0625 16.5844 18.0002 16.4097 17.8834C16.235 17.7667 16.0988 17.6007 16.0184 17.4066C15.938 17.2125 15.9169 16.9988 15.9579 16.7927C15.9989 16.5866 16.1001 16.3973 16.2487 16.2487C16.3973 16.1001 16.5866 15.9989 16.7927 15.9579C16.9988 15.9169 17.2125 15.938 17.4066 16.0184C17.6007 16.0988 17.7667 16.235 17.8834 16.4097C18.0002 16.5844 18.0625 16.7899 18.0625 17C18.0625 17.2818 17.9506 17.552 17.7513 17.7513C17.552 17.9506 17.2818 18.0625 17 18.0625Z" fill="#2B39B9"/>
<path d="M9.5625 11.6875V10.625C9.5625 8.65245 10.3461 6.76069 11.7409 5.36589C13.1357 3.97109 15.0275 3.1875 17 3.1875C18.9725 3.1875 20.8643 3.97109 22.2591 5.36589C23.6539 6.76069 24.4375 8.65245 24.4375 10.625V11.6875H26.5625V10.625C26.5625 8.08887 25.555 5.65661 23.7617 3.86329C21.9684 2.06997 19.5361 1.0625 17 1.0625C14.4639 1.0625 12.0316 2.06997 10.2383 3.86329C8.44497 5.65661 7.4375 8.08887 7.4375 10.625V11.6875H9.5625Z" fill="#2B39B9"/>
</svg>
